<svg width="198" height="38" viewBox="0 0 198 38" fill="none" xmlns="http://www.w3.org/2000/svg">
<path d="M0.6875 37.9375V9.8125C0.6875 4.34375 3.42188 1.60938 8.89062 1.60938H16.1562C21.625 1.60938 24.3594 4.34375 24.3594 9.8125V35.8281L19.9062 37.9375H19.6719V9.8125C19.6719 7.15625 18.5 5.82812 16.1562 5.82812H8.89062C6.54688 5.82812 5.375 7.15625 5.375 9.8125V35.8281L0.921875 37.9375H0.6875ZM39.5938 37C34.9062 37 32.5625 34.6562 32.5625 29.9688V18.25C32.5625 13.5625 34.9062 11.2188 39.5938 11.2188H44.9844C49.6719 11.2188 52.0156 13.5625 52.0156 18.25V19.4922L37.3203 30.8594C37.5391 32.1406 38.2969 32.7812 39.5938 32.7812H44.9844C46.5469 32.7812 47.3281 31.8438 47.3281 29.9688V28.7266L51.7812 26.6172H52.0156V29.9688C52.0156 34.6562 49.6719 37 44.9844 37H39.5938ZM37.25 25.9609L47.3047 17.8516C47.2109 16.2422 46.4375 15.4375 44.9844 15.4375H39.5938C38.0312 15.4375 37.25 16.375 37.25 18.25V25.9609ZM65.375 37C60.6875 37 58.3438 34.6562 58.3438 29.9688V29.125L62.7969 27.0156H63.0312V29.9688C63.0312 31.8438 63.8125 32.7812 65.375 32.7812H70.7656C72.3281 32.7812 73.1094 31.8438 73.1094 29.9688V28.1172C73.1094 26.2422 72.3281 25.3047 70.7656 25.3047H66.3594C61.6719 25.3047 59.3281 22.9531 59.3281 18.25C59.3281 13.5625 61.6719 11.2188 66.3594 11.2188H69.1016C73.7891 11.2188 76.1328 13.1094 76.1328 16.8906L71.6797 19H71.4453V18.25C71.4453 16.375 70.6641 15.4375 69.1016 15.4375H66.3594C64.7969 15.4375 64.0156 16.375 64.0156 18.25C64.0156 20.1406 64.7969 21.0859 66.3594 21.0859H70.7656C75.4531 21.0859 77.7969 23.4297 77.7969 28.1172V29.9688C77.7969 34.6562 75.4531 37 70.7656 37H65.375ZM85.2969 37.9375V2.78125L89.75 0.671875H89.9844V11.9453C90.6719 11.4609 91.4531 11.2188 92.3281 11.2188H97.7188C102.406 11.2188 104.75 13.5625 104.75 18.25V35.8281L100.297 37.9375H100.062V18.25C100.062 16.375 99.2812 15.4375 97.7188 15.4375H92.3281C90.7656 15.4375 89.9844 16.375 89.9844 18.25V35.8281L85.5312 37.9375H85.2969ZM112.953 37.9375V2.78125L117.406 0.671875H117.641V35.8281L113.188 37.9375H112.953ZM131.703 32.7812H136.625C138.188 32.7812 138.969 31.8438 138.969 29.9688V26.7578C138.969 24.8828 138.188 23.9453 136.625 23.9453H131.703C130.141 23.9453 129.359 24.8828 129.359 26.7578V29.9688C129.359 31.8438 130.141 32.7812 131.703 32.7812ZM131.703 37C127.016 37 124.672 34.6562 124.672 29.9688V26.7578C124.672 22.0703 127.016 19.7266 131.703 19.7266H136.625C137.438 19.7266 138.219 19.9609 138.969 20.4297V18.25C138.969 16.375 138.188 15.4375 136.625 15.4375H128.234V15.2031L130.109 11.2188H136.625C141.312 11.2188 143.656 13.5625 143.656 18.25V35.8281L139.203 37.9375H138.969V36.2969C138.375 36.7656 137.594 37 136.625 37H131.703ZM158.891 32.7812H164.281C165.844 32.7812 166.625 31.8438 166.625 29.9688V18.25C166.625 16.375 165.844 15.4375 164.281 15.4375H158.891C157.328 15.4375 156.547 16.375 156.547 18.25V29.9688C156.547 31.8438 157.328 32.7812 158.891 32.7812ZM158.891 37C154.203 37 151.859 34.6562 151.859 29.9688V2.78125L156.312 0.671875H156.547V11.9453C157.172 11.4609 157.953 11.2188 158.891 11.2188H164.281C168.969 11.2188 171.312 13.5625 171.312 18.25V29.9688C171.312 34.6562 168.969 37 164.281 37H158.891ZM184.672 37C179.984 37 177.641 34.6562 177.641 29.9688V29.125L182.094 27.0156H182.328V29.9688C182.328 31.8438 183.109 32.7812 184.672 32.7812H190.062C191.625 32.7812 192.406 31.8438 192.406 29.9688V28.1172C192.406 26.2422 191.625 25.3047 190.062 25.3047H185.656C180.969 25.3047 178.625 22.9531 178.625 18.25C178.625 13.5625 180.969 11.2188 185.656 11.2188H188.398C193.086 11.2188 195.43 13.1094 195.43 16.8906L190.977 19H190.742V18.25C190.742 16.375 189.961 15.4375 188.398 15.4375H185.656C184.094 15.4375 183.312 16.375 183.312 18.25C183.312 20.1406 184.094 21.0859 185.656 21.0859H190.062C194.75 21.0859 197.094 23.4297 197.094 28.1172V29.9688C197.094 34.6562 194.75 37 190.062 37H184.672Z" fill="url(#paint0_linear_11_52)"/>
<defs>
<linearGradient id="paint0_linear_11_52" x1="4.04869" y1="46.3076" x2="182.243" y2="-89.3836" gradientUnits="userSpaceOnUse">
<stop stop-color="#0B2FCB"/>
<stop offset="1" stop-color="#001364"/>
</linearGradient>
</defs>
</svg>
